<svg width="16" height="19" viewBox="0 0 16 19" fill="none" xmlns="http://www.w3.org/2000/svg">
<path fill-rule="evenodd" clip-rule="evenodd" d="M1 7.96313C1.01313 4.10441 4.15778 0.986931 8.02376 1.00004C11.8897 1.01315 15.0131 4.15189 15 8.0106V8.08973C14.9524 10.598 13.5492 12.9164 11.829 14.7284C10.8451 15.7481 9.74649 16.6509 8.5549 17.4187C8.23628 17.6938 7.76367 17.6938 7.44505 17.4187C5.66868 16.2646 4.10962 14.8076 2.83918 13.1142C1.70686 11.6376 1.06397 9.8453 1 7.98687L1 7.96313Z" stroke="#181725" stroke-width="1.5" stroke-linecap="round" stroke-linejoin="round"/>
<path fill-rule="evenodd" clip-rule="evenodd" d="M7.99985 10.0439C9.07683 10.0439 9.94989 9.17246 9.94989 8.0975C9.94989 7.02255 9.07683 6.15112 7.99985 6.15112C6.92287 6.15112 6.0498 7.02255 6.0498 8.0975C6.0498 9.17246 6.92287 10.0439 7.99985 10.0439Z" stroke="#181725" stroke-width="1.5" stroke-linecap="round" stroke-linejoin="round"/>
</svg>
