<svg width="16" height="16" viewBox="0 0 16 16" fill="none" xmlns="http://www.w3.org/2000/svg">
<path d="M3.33333 1L1 3.8V13.6C1 13.9713 1.16389 14.3274 1.45561 14.5899C1.74733 14.8525 2.143 15 2.55556 15H13.4444C13.857 15 14.2527 14.8525 14.5444 14.5899C14.8361 14.3274 15 13.9713 15 13.6V3.8L12.6667 1H3.33333Z" stroke="#181725" stroke-width="1.5" stroke-linecap="round" stroke-linejoin="round"/>
<path d="M1 3.80017H15" stroke="#181725" stroke-width="1.5" stroke-linecap="round" stroke-linejoin="round"/>
<path d="M11.1109 6.59985C11.1109 7.34246 10.7831 8.05465 10.1997 8.57975C9.61622 9.10485 8.8249 9.39985 7.99978 9.39985C7.17467 9.39985 6.38334 9.10485 5.7999 8.57975C5.21645 8.05465 4.88867 7.34246 4.88867 6.59985" stroke="#181725" stroke-width="1.5" stroke-linecap="round" stroke-linejoin="round"/>
</svg>
