<svg width="20" height="20" viewBox="0 0 20 20" fill="none" xmlns="http://www.w3.org/2000/svg">
<path d="M6.6665 15.7735C7.67997 16.3587 8.82959 16.6667 9.99984 16.6667C11.1701 16.6667 12.3197 16.3587 13.3332 15.7735C14.3466 15.1884 15.1882 14.3468 15.7733 13.3334C16.3585 12.3199 16.6665 11.1703 16.6665 10C16.6665 8.8298 16.3585 7.68017 15.7733 6.66671C15.1882 5.65325 14.3466 4.81166 13.3332 4.22654C12.3197 3.64142 11.1701 3.33337 9.99984 3.33337C8.82959 3.33337 7.67997 3.64142 6.6665 4.22654" stroke="#FF0000" stroke-width="1.5"/>
<path d="M1.6665 10L1.08085 9.53152L0.706035 10L1.08085 10.4686L1.6665 10ZM9.1665 10.75C9.58072 10.75 9.9165 10.4143 9.9165 10C9.9165 9.58583 9.58072 9.25004 9.1665 9.25004V10.75ZM4.41419 5.36485L1.08085 9.53152L2.25216 10.4686L5.58549 6.3019L4.41419 5.36485ZM1.08085 10.4686L4.41419 14.6352L5.58549 13.6982L2.25216 9.53152L1.08085 10.4686ZM1.6665 10.75H9.1665V9.25004H1.6665V10.75Z" fill="#FF0000"/>
</svg>
