<svg width="20" height="20" viewBox="0 0 20 20" fill="none" xmlns="http://www.w3.org/2000/svg">
<path fill-rule="evenodd" clip-rule="evenodd" d="M4.48175 1.66675C4.49192 1.66675 4.50211 1.66675 4.51234 1.66675L6.35126 1.66675C6.68096 1.66673 6.97764 1.66671 7.22435 1.6872C7.48865 1.70915 7.7693 1.75885 8.04354 1.90131C8.42404 2.09896 8.73429 2.40921 8.93195 2.78972C9.0744 3.06396 9.12411 3.34461 9.14606 3.6089C9.16654 3.85561 9.16653 4.15229 9.16651 4.48198V6.35152C9.16653 6.68121 9.16654 6.97789 9.14606 7.2246C9.12411 7.48889 9.0744 7.76955 8.93195 8.04378C8.73429 8.42429 8.42404 8.73454 8.04354 8.93219C7.7693 9.07465 7.48865 9.12435 7.22435 9.1463C6.97764 9.16679 6.68097 9.16677 6.35127 9.16675H4.48174C4.15205 9.16677 3.85537 9.16679 3.60866 9.1463C3.34437 9.12435 3.06371 9.07465 2.78948 8.93219C2.40897 8.73454 2.09872 8.42429 1.90106 8.04378C1.75861 7.76955 1.70891 7.48889 1.68696 7.2246C1.66647 6.97788 1.66649 6.6812 1.66651 6.3515L1.66651 4.51258C1.66651 4.50236 1.66651 4.49216 1.66651 4.482C1.66649 4.1523 1.66647 3.85562 1.68696 3.6089C1.70891 3.34461 1.75861 3.06396 1.90106 2.78972C2.09872 2.40921 2.40897 2.09896 2.78948 1.90131C3.06371 1.75885 3.34437 1.70915 3.60866 1.6872C3.85537 1.66671 4.15205 1.66673 4.48175 1.66675ZM3.56443 3.37756C3.56005 3.37915 3.55818 3.38011 3.55777 3.38033C3.48167 3.41986 3.41962 3.48191 3.38008 3.55801C3.37987 3.55842 3.3789 3.5603 3.37731 3.56468C3.37565 3.56924 3.37289 3.57768 3.3696 3.59142C3.36268 3.62031 3.35446 3.66796 3.34791 3.74684C3.33384 3.91618 3.33317 4.14266 3.33317 4.51258V6.32092C3.33317 6.69084 3.33384 6.91732 3.34791 7.08666C3.35446 7.16554 3.36268 7.21319 3.3696 7.24208C3.37289 7.25582 3.37565 7.26426 3.37731 7.26882C3.3789 7.2732 3.37987 7.27508 3.38008 7.27549C3.41962 7.35159 3.48167 7.41364 3.55777 7.45317C3.55818 7.45339 3.56005 7.45435 3.56443 7.45595C3.569 7.4576 3.57744 7.46036 3.59118 7.46365C3.62006 7.47058 3.66771 7.4788 3.7466 7.48535C3.91594 7.49941 4.14242 7.50008 4.51234 7.50008H6.32067C6.69059 7.50008 6.91707 7.49941 7.08642 7.48535C7.1653 7.4788 7.21295 7.47058 7.24184 7.46365C7.25557 7.46036 7.26401 7.4576 7.26858 7.45595C7.27296 7.45435 7.27483 7.45339 7.27525 7.45317C7.35135 7.41364 7.4134 7.35159 7.45293 7.27549C7.45314 7.27508 7.45411 7.2732 7.4557 7.26882C7.45736 7.26426 7.46012 7.25582 7.46341 7.24208C7.47033 7.21319 7.47856 7.16554 7.48511 7.08666C7.49917 6.91732 7.49984 6.69084 7.49984 6.32092V4.51258C7.49984 4.14266 7.49917 3.91618 7.48511 3.74684C7.47856 3.66796 7.47033 3.62031 7.46341 3.59142C7.46012 3.57768 7.45736 3.56924 7.4557 3.56468C7.45411 3.5603 7.45314 3.55842 7.45293 3.55801C7.4134 3.48191 7.35135 3.41986 7.27525 3.38033C7.27483 3.38011 7.27296 3.37915 7.26858 3.37756C7.26401 3.3759 7.25557 3.37314 7.24184 3.36985C7.21295 3.36293 7.1653 3.3547 7.08642 3.34815C6.91707 3.33409 6.69059 3.33342 6.32067 3.33342H4.51234C4.14242 3.33342 3.91594 3.33409 3.7466 3.34815C3.66771 3.3547 3.62006 3.36293 3.59118 3.36985C3.57744 3.37314 3.569 3.3759 3.56443 3.37756ZM13.6484 1.66675H15.5179C15.8476 1.66673 16.1443 1.66671 16.391 1.6872C16.6553 1.70915 16.936 1.75885 17.2102 1.90131C17.5907 2.09896 17.901 2.40921 18.0986 2.78972C18.2411 3.06396 18.2908 3.34461 18.3127 3.6089C18.3332 3.85562 18.3332 4.15231 18.3332 4.48202V6.35148C18.3332 6.68119 18.3332 6.97788 18.3127 7.2246C18.2908 7.48889 18.2411 7.76955 18.0986 8.04378C17.901 8.42429 17.5907 8.73454 17.2102 8.93219C16.936 9.07465 16.6553 9.12435 16.391 9.1463C16.1443 9.16679 15.8476 9.16677 15.5179 9.16675H13.6484C13.3187 9.16677 13.022 9.16679 12.7753 9.1463C12.511 9.12435 12.2304 9.07465 11.9561 8.93219C11.5756 8.73454 11.2654 8.42429 11.0677 8.04378C10.9253 7.76955 10.8756 7.48889 10.8536 7.2246C10.8331 6.97789 10.8332 6.68121 10.8332 6.35152V4.48198C10.8332 4.15229 10.8331 3.85561 10.8536 3.6089C10.8756 3.34461 10.9253 3.06396 11.0677 2.78972C11.2654 2.40921 11.5756 2.09896 11.9561 1.90131C12.2304 1.75885 12.511 1.70915 12.7753 1.6872C13.022 1.66671 13.3187 1.66673 13.6484 1.66675ZM12.7311 3.37756C12.7267 3.37915 12.7248 3.38011 12.7244 3.38033C12.6483 3.41986 12.5863 3.48191 12.5468 3.55801C12.5465 3.55842 12.5456 3.5603 12.544 3.56468C12.5423 3.56924 12.5396 3.57768 12.5363 3.59142C12.5293 3.62031 12.5211 3.66796 12.5146 3.74684C12.5005 3.91618 12.4998 4.14266 12.4998 4.51258V6.32092C12.4998 6.69084 12.5005 6.91732 12.5146 7.08666C12.5211 7.16554 12.5293 7.21319 12.5363 7.24208C12.5396 7.25582 12.5423 7.26426 12.544 7.26882C12.5456 7.2732 12.5465 7.27508 12.5468 7.27549C12.5863 7.35159 12.6483 7.41364 12.7244 7.45317C12.7248 7.45339 12.7267 7.45435 12.7311 7.45595C12.7357 7.4576 12.7441 7.46036 12.7578 7.46365C12.7867 7.47058 12.8344 7.4788 12.9133 7.48535C13.0826 7.49941 13.3091 7.50008 13.679 7.50008H15.4873C15.8573 7.50008 16.0837 7.49941 16.2531 7.48535C16.332 7.4788 16.3796 7.47058 16.4085 7.46365C16.4222 7.46036 16.4307 7.4576 16.4352 7.45595C16.4396 7.45435 16.4415 7.45339 16.4419 7.45317C16.518 7.41364 16.5801 7.35159 16.6196 7.27549C16.6198 7.27508 16.6208 7.2732 16.6224 7.26882C16.624 7.26426 16.6268 7.25582 16.6301 7.24208C16.637 7.21319 16.6452 7.16554 16.6518 7.08666C16.6658 6.91732 16.6665 6.69084 16.6665 6.32092V4.51258C16.6665 4.14266 16.6658 3.91618 16.6518 3.74684C16.6452 3.66796 16.637 3.62031 16.6301 3.59142C16.6268 3.57768 16.624 3.56924 16.6224 3.56468C16.6208 3.5603 16.6198 3.55842 16.6196 3.55801C16.5801 3.48191 16.518 3.41986 16.4419 3.38033C16.4415 3.38011 16.4396 3.37915 16.4352 3.37756C16.4307 3.3759 16.4222 3.37314 16.4085 3.36985C16.3796 3.36293 16.332 3.3547 16.2531 3.34815C16.0837 3.33409 15.8573 3.33342 15.4873 3.33342H13.679C13.3091 3.33342 13.0826 3.33409 12.9133 3.34815C12.8344 3.3547 12.7867 3.36293 12.7578 3.36985C12.7441 3.37314 12.7357 3.3759 12.7311 3.37756ZM4.48174 10.8334H6.35127C6.68097 10.8334 6.97764 10.8334 7.22435 10.8539C7.48865 10.8758 7.7693 10.9255 8.04354 11.068C8.42404 11.2656 8.73429 11.5759 8.93195 11.9564C9.0744 12.2306 9.12411 12.5113 9.14606 12.7756C9.16654 13.0223 9.16653 13.319 9.16651 13.6487V15.5182C9.16653 15.8479 9.16654 16.1446 9.14606 16.3913C9.12411 16.6556 9.0744 16.9362 8.93195 17.2104C8.73429 17.591 8.42404 17.9012 8.04354 18.0989C7.7693 18.2413 7.48865 18.291 7.22435 18.313C6.97763 18.3335 6.68095 18.3334 6.35124 18.3334H4.48177C4.15207 18.3334 3.85538 18.3335 3.60866 18.313C3.34437 18.291 3.06371 18.2413 2.78948 18.0989C2.40897 17.9012 2.09872 17.591 1.90106 17.2104C1.75861 16.9362 1.70891 16.6556 1.68696 16.3913C1.66647 16.1445 1.66649 15.8479 1.66651 15.5182V13.6487C1.66649 13.319 1.66647 13.0223 1.68696 12.7756C1.70891 12.5113 1.75861 12.2306 1.90106 11.9564C2.09872 11.5759 2.40897 11.2656 2.78948 11.068C3.06371 10.9255 3.34437 10.8758 3.60866 10.8539C3.85537 10.8334 4.15205 10.8334 4.48174 10.8334ZM3.56443 12.5442C3.56005 12.5458 3.55818 12.5468 3.55777 12.547C3.48167 12.5865 3.41962 12.6486 3.38008 12.7247C3.37987 12.7251 3.3789 12.727 3.37731 12.7313C3.37565 12.7359 3.37289 12.7443 3.3696 12.7581C3.36268 12.787 3.35446 12.8346 3.34791 12.9135C3.33384 13.0828 3.33317 13.3093 3.33317 13.6792V15.4876C3.33317 15.8575 3.33384 16.084 3.34791 16.2533C3.35446 16.3322 3.36268 16.3799 3.3696 16.4087C3.37289 16.4225 3.37565 16.4309 3.37731 16.4355C3.3789 16.4399 3.37987 16.4417 3.38008 16.4422C3.41962 16.5183 3.48166 16.5803 3.55777 16.6198C3.55818 16.6201 3.56005 16.621 3.56443 16.6226C3.569 16.6243 3.57744 16.627 3.59118 16.6303C3.62006 16.6372 3.66771 16.6455 3.7466 16.652C3.91594 16.6661 4.14242 16.6667 4.51234 16.6667H6.32067C6.69059 16.6667 6.91707 16.6661 7.08642 16.652C7.1653 16.6455 7.21295 16.6372 7.24184 16.6303C7.25557 16.627 7.26401 16.6243 7.26858 16.6226C7.27296 16.621 7.27483 16.6201 7.27525 16.6198C7.35135 16.5803 7.4134 16.5183 7.45293 16.4422C7.45314 16.4417 7.45411 16.4399 7.4557 16.4355C7.45736 16.4309 7.46012 16.4225 7.46341 16.4087C7.47033 16.3799 7.47856 16.3322 7.48511 16.2533C7.49917 16.084 7.49984 15.8575 7.49984 15.4876V13.6792C7.49984 13.3093 7.49917 13.0828 7.48511 12.9135C7.47856 12.8346 7.47033 12.787 7.46341 12.7581C7.46012 12.7444 7.45736 12.7359 7.4557 12.7313C7.45411 12.727 7.45314 12.7251 7.45293 12.7247C7.4134 12.6486 7.35135 12.5865 7.27525 12.547C7.27506 12.5469 7.27457 12.5466 7.27368 12.5462C7.27261 12.5458 7.27097 12.5451 7.26858 12.5442C7.26401 12.5426 7.25557 12.5398 7.24184 12.5365C7.21295 12.5296 7.1653 12.5214 7.08642 12.5148C6.91707 12.5008 6.69059 12.5001 6.32067 12.5001H4.51234C4.14242 12.5001 3.91594 12.5008 3.74659 12.5148C3.66771 12.5214 3.62006 12.5296 3.59118 12.5365C3.57744 12.5398 3.569 12.5426 3.56443 12.5442ZM13.6484 10.8334H15.5179C15.8476 10.8334 16.1443 10.8334 16.391 10.8539C16.6553 10.8758 16.936 10.9255 17.2102 11.068C17.5907 11.2656 17.901 11.5759 18.0986 11.9564C18.2411 12.2306 18.2908 12.5113 18.3127 12.7756C18.3332 13.0223 18.3332 13.319 18.3332 13.6487V15.5182C18.3332 15.8479 18.3332 16.1445 18.3127 16.3913C18.2908 16.6556 18.2411 16.9362 18.0986 17.2104C17.901 17.591 17.5907 17.9012 17.2102 18.0989C16.936 18.2413 16.6553 18.291 16.391 18.313C16.1443 18.3335 15.8476 18.3334 15.5179 18.3334H13.6484C13.3187 18.3334 13.022 18.3335 12.7753 18.313C12.511 18.291 12.2304 18.2413 11.9561 18.0989C11.5756 17.9012 11.2654 17.591 11.0677 17.2104C10.9253 16.9362 10.8756 16.6556 10.8536 16.3913C10.8331 16.1446 10.8332 15.8479 10.8332 15.5182V13.6486C10.8332 13.319 10.8331 13.0223 10.8536 12.7756C10.8756 12.5113 10.9253 12.2306 11.0677 11.9564C11.2654 11.5759 11.5756 11.2656 11.9561 11.068C12.2304 10.9255 12.511 10.8758 12.7753 10.8539C13.022 10.8334 13.3187 10.8334 13.6484 10.8334ZM12.7311 12.5442C12.7267 12.5458 12.7248 12.5468 12.7244 12.547C12.6483 12.5865 12.5863 12.6486 12.5468 12.7247C12.5465 12.7251 12.5456 12.727 12.544 12.7313C12.5423 12.7359 12.5396 12.7443 12.5363 12.7581C12.5293 12.787 12.5211 12.8346 12.5146 12.9135C12.5005 13.0828 12.4998 13.3093 12.4998 13.6792V15.4876C12.4998 15.8575 12.5005 16.084 12.5146 16.2533C12.5211 16.3322 12.5293 16.3799 12.5363 16.4087C12.5396 16.4225 12.5423 16.4309 12.544 16.4355C12.5456 16.4399 12.5465 16.4417 12.5468 16.4422C12.5863 16.5183 12.6483 16.5803 12.7244 16.6198C12.7248 16.6201 12.7267 16.621 12.7311 16.6226C12.7357 16.6243 12.7441 16.627 12.7578 16.6303C12.7867 16.6372 12.8344 16.6455 12.9133 16.652C13.0826 16.6661 13.3091 16.6667 13.679 16.6667H15.4873C15.8573 16.6667 16.0837 16.6661 16.2531 16.652C16.332 16.6455 16.3796 16.6372 16.4085 16.6303C16.4222 16.627 16.4307 16.6243 16.4352 16.6226C16.4396 16.621 16.4415 16.6201 16.4419 16.6198C16.518 16.5803 16.5801 16.5183 16.6196 16.4422C16.6198 16.4417 16.6208 16.4399 16.6224 16.4355C16.624 16.4309 16.6268 16.4225 16.6301 16.4087C16.637 16.3799 16.6452 16.3322 16.6518 16.2533C16.6658 16.084 16.6665 15.8575 16.6665 15.4876V13.6792C16.6665 13.3093 16.6658 13.0828 16.6518 12.9135C16.6452 12.8346 16.637 12.787 16.6301 12.7581C16.6268 12.7444 16.624 12.7359 16.6224 12.7313C16.6218 12.7298 16.6213 12.7285 16.6209 12.7275C16.6202 12.7258 16.6197 12.7249 16.6196 12.7247C16.5801 12.6486 16.518 12.5865 16.4419 12.547C16.4415 12.5468 16.4396 12.5458 16.4352 12.5442C16.4307 12.5426 16.4222 12.5398 16.4085 12.5365C16.3796 12.5296 16.332 12.5214 16.2531 12.5148C16.0837 12.5008 15.8573 12.5001 15.4873 12.5001H13.679C13.3091 12.5001 13.0826 12.5008 12.9133 12.5148C12.8344 12.5214 12.7867 12.5296 12.7578 12.5365C12.7441 12.5398 12.7357 12.5426 12.7311 12.5442Z" fill="#919396"/>
</svg>
