<svg width="17" height="19" viewBox="0 0 17 19" fill="none" xmlns="http://www.w3.org/2000/svg">
<path d="M1.53516 4.70508H3.09389H15.5638" stroke="#FB8500" stroke-width="1.56833" stroke-linecap="round" stroke-linejoin="round"/>
<path d="M5.43283 4.70501V3.13669C5.43283 2.72074 5.59705 2.32183 5.88937 2.02771C6.18169 1.73359 6.57816 1.56836 6.99156 1.56836H10.109C10.5224 1.56836 10.9189 1.73359 11.2112 2.02771C11.5035 2.32183 11.6678 2.72074 11.6678 3.13669V4.70501M14.0059 4.70501V15.6833C14.0059 16.0993 13.8416 16.4982 13.5493 16.7923C13.257 17.0864 12.8605 17.2516 12.4471 17.2516H4.65346C4.24006 17.2516 3.84359 17.0864 3.55127 16.7923C3.25895 16.4982 3.09473 16.0993 3.09473 15.6833V4.70501H14.0059Z" stroke="#FB8500" stroke-width="1.56833" stroke-linecap="round" stroke-linejoin="round"/>
<path d="M6.99121 8.62598V13.331" stroke="#FB8500" stroke-width="1.56833" stroke-linecap="round" stroke-linejoin="round"/>
<path d="M10.1084 8.62598V13.331" stroke="#FB8500" stroke-width="1.56833" stroke-linecap="round" stroke-linejoin="round"/>
</svg>
