<svg width="22" height="22" viewBox="0 0 22 22" fill="none" xmlns="http://www.w3.org/2000/svg">
<path fill-rule="evenodd" clip-rule="evenodd" d="M20.2438 7.86173L21.0363 8.65392C21.6636 9.27006 22.0048 10.1063 22.0048 10.9865C22.0158 11.8667 21.6746 12.704 21.0583 13.33C21.0509 13.3381 21.0436 13.3451 21.0363 13.3522C21.0326 13.3558 21.0289 13.3593 21.0252 13.363L20.2438 14.1442C19.9356 14.4523 19.7595 14.8704 19.7595 15.3116V16.4437C19.7595 18.2701 18.2736 19.7566 16.4465 19.7566H15.3129C14.8726 19.7566 14.4543 19.9315 14.1462 20.2396L13.3537 21.0318C12.7043 21.682 11.8568 22 11.0093 22C10.1618 22 9.3143 21.682 8.66491 21.0439L7.86143 20.2396C7.55325 19.9315 7.135 19.7566 6.69474 19.7566H5.56107C3.73398 19.7566 2.2481 18.2701 2.2481 16.4437V15.3116C2.2481 14.8704 2.072 14.4523 1.76381 14.1332L0.971344 13.352C-0.31642 12.0658 -0.327427 9.96322 0.960338 8.66602L1.76381 7.86173C2.072 7.55366 2.2481 7.13557 2.2481 6.68446V5.5622C2.2481 3.73578 3.73398 2.25154 5.56107 2.25154H6.69474C7.135 2.25154 7.55325 2.0744 7.86143 1.76632L8.6539 0.974141C9.94167 -0.323059 12.0439 -0.323059 13.3427 0.964239L14.1462 1.76632C14.4543 2.0744 14.8726 2.25154 15.3129 2.25154H16.4465C18.2736 2.25154 19.7595 3.73578 19.7595 5.5622V6.69656C19.7595 7.13557 19.9356 7.55366 20.2438 7.86173ZM8.16963 14.7932C8.43379 14.7932 8.67593 14.6942 8.85203 14.5072L14.5094 8.85295C14.8836 8.47886 14.8836 7.86162 14.5094 7.48753C14.1352 7.11455 13.5298 7.11455 13.1556 7.48753L7.49823 13.1428C7.12401 13.5169 7.12401 14.1331 7.49823 14.5072C7.67434 14.6942 7.91648 14.7932 8.16963 14.7932ZM12.8694 13.8248C12.8694 14.3638 13.2986 14.7928 13.8378 14.7928C14.366 14.7928 14.7951 14.3638 14.7951 13.8248C14.7951 13.2979 14.366 12.8678 13.8378 12.8678C13.2986 12.8678 12.8694 13.2979 12.8694 13.8248ZM8.18041 7.21263C8.7086 7.21263 9.13776 7.64163 9.13776 8.16963C9.13776 8.70973 8.7086 9.13763 8.18041 9.13763C7.65222 9.13763 7.21206 8.70973 7.21206 8.16963C7.21206 7.64163 7.65222 7.21263 8.18041 7.21263Z" fill="#29A485"/>
</svg>
