<svg width="18" height="17" viewBox="0 0 18 17" fill="none" xmlns="http://www.w3.org/2000/svg">
<path d="M8.10618 2.59094H2.88829C2.4929 2.59094 2.1137 2.74898 1.83411 3.03028C1.55453 3.31159 1.39746 3.69312 1.39746 4.09094V14.5909C1.39746 14.9888 1.55453 15.3703 1.83411 15.6516C2.1137 15.9329 2.4929 16.0909 2.88829 16.0909H13.3241C13.7195 16.0909 14.0987 15.9329 14.3782 15.6516C14.6578 15.3703 14.8149 14.9888 14.8149 14.5909V9.34094" stroke="#FB8500" stroke-width="1.5" stroke-linecap="round" stroke-linejoin="round"/>
<path d="M13.697 1.46599C13.9935 1.16762 14.3957 1 14.8151 1C15.2344 1 15.6366 1.16762 15.9332 1.46599C16.2297 1.76436 16.3963 2.16903 16.3963 2.59099C16.3963 3.01295 16.2297 3.41762 15.9332 3.71599L8.85177 10.841L5.87012 11.591L6.61553 8.59099L13.697 1.46599Z" stroke="#FB8500" stroke-width="1.5" stroke-linecap="round" stroke-linejoin="round"/>
</svg>
