<svg width="22" height="22" viewBox="0 0 22 22" fill="none" xmlns="http://www.w3.org/2000/svg">
<path d="M13.3196 8.68088L8.68125 13.3192C8.08542 12.7234 7.71875 11.9076 7.71875 11.0001C7.71875 9.18505 9.18542 7.71838 11.0004 7.71838C11.9079 7.71838 12.7237 8.08505 13.3196 8.68088Z" stroke="#717171" stroke-width="1.5" stroke-linecap="round" stroke-linejoin="round"/>
<path d="M16.3349 5.28919C14.7307 4.07919 12.8974 3.41919 10.9999 3.41919C7.76402 3.41919 4.74819 5.32586 2.64902 8.62586C1.82402 9.91836 1.82402 12.0909 2.64902 13.3834C3.37319 14.52 4.21652 15.5009 5.13319 16.2892" stroke="#717171" stroke-width="1.5" stroke-linecap="round" stroke-linejoin="round"/>
<path d="M7.71875 17.9025C8.76375 18.3425 9.87292 18.5808 11.0004 18.5808C14.2362 18.5808 17.2521 16.6742 19.3512 13.3742C20.1762 12.0817 20.1762 9.90916 19.3512 8.61666C19.0487 8.14 18.7187 7.69083 18.3796 7.26917" stroke="#717171" stroke-width="1.5" stroke-linecap="round" stroke-linejoin="round"/>
<path d="M14.2178 11.6417C13.9795 12.9342 12.9253 13.9884 11.6328 14.2267" stroke="#717171" stroke-width="1.5" stroke-linecap="round" stroke-linejoin="round"/>
<path d="M8.68051 13.3192L1.83301 20.1667" stroke="#717171" stroke-width="1.5" stroke-linecap="round" stroke-linejoin="round"/>
<path d="M20.1668 1.83337L13.3193 8.68087" stroke="#717171" stroke-width="1.5" stroke-linecap="round" stroke-linejoin="round"/>
</svg>
