<svg width="22" height="22" viewBox="0 0 22 22" fill="none" xmlns="http://www.w3.org/2000/svg">
<path d="M14.2821 11.0001C14.2821 12.8151 12.8154 14.2817 11.0004 14.2817C9.18542 14.2817 7.71875 12.8151 7.71875 11.0001C7.71875 9.18505 9.18542 7.71838 11.0004 7.71838C12.8154 7.71838 14.2821 9.18505 14.2821 11.0001Z" stroke="#C1C1C1" stroke-width="1.5" stroke-linecap="round" stroke-linejoin="round"/>
<path d="M10.9999 18.5809C14.2357 18.5809 17.2515 16.6742 19.3507 13.3742C20.1757 12.0817 20.1757 9.9092 19.3507 8.6167C17.2515 5.3167 14.2357 3.41003 10.9999 3.41003C7.76402 3.41003 4.74819 5.3167 2.64902 8.6167C1.82402 9.9092 1.82402 12.0817 2.64902 13.3742C4.74819 16.6742 7.76402 18.5809 10.9999 18.5809Z" stroke="#C1C1C1" stroke-width="1.5" stroke-linecap="round" stroke-linejoin="round"/>
</svg>
