<svg width="14" height="14" viewBox="0 0 14 14" fill="none" xmlns="http://www.w3.org/2000/svg">
<path d="M3.14982 1.22498H10.8498C11.4915 1.22498 12.0165 1.74998 12.0165 2.39164V3.67498C12.0165 4.14164 11.7248 4.72498 11.4332 5.01664L8.92482 7.23331C8.57482 7.52497 8.34149 8.10831 8.34149 8.57498V11.0833C8.34149 11.4333 8.10815 11.9 7.81649 12.075L6.99982 12.6C6.24149 13.0666 5.19149 12.5416 5.19149 11.6083V8.51664C5.19149 8.10831 4.95815 7.58331 4.72482 7.29164L2.50815 4.95831C2.21649 4.66664 1.98315 4.14164 1.98315 3.79164V2.44998C1.98315 1.74998 2.50815 1.22498 3.14982 1.22498Z" stroke="#292D32" stroke-width="1.2" stroke-miterlimit="10" stroke-linecap="round" stroke-linejoin="round"/>
<path d="M6.37583 1.22498L3.5 5.83331" stroke="#292D32" stroke-width="1.2" stroke-miterlimit="10" stroke-linecap="round" stroke-linejoin="round"/>
</svg>
