<svg width="20" height="20" viewBox="0 0 20 20" fill="none" xmlns="http://www.w3.org/2000/svg">
<path fill-rule="evenodd" clip-rule="evenodd" d="M9.48834 1.00879C9.78927 0.774739 10.2107 0.774739 10.5116 1.00879L18.0116 6.84212C18.2146 7 18.3333 7.24276 18.3333 7.49992V16.6666C18.3333 17.3296 18.0699 17.9655 17.6011 18.4344C17.1322 18.9032 16.4963 19.1666 15.8333 19.1666H4.16663C3.50358 19.1666 2.8677 18.9032 2.39886 18.4344C1.93002 17.9655 1.66663 17.3296 1.66663 16.6666V7.49992C1.66663 7.24276 1.78535 7 1.98834 6.84212L9.48834 1.00879ZM3.33329 7.90749V16.6666C3.33329 16.8876 3.42109 17.0996 3.57737 17.2558C3.73365 17.4121 3.94561 17.4999 4.16663 17.4999H15.8333C16.0543 17.4999 16.2663 17.4121 16.4225 17.2558C16.5788 17.0996 16.6666 16.8876 16.6666 16.6666V7.90749L9.99996 2.7223L3.33329 7.90749Z" fill="#919396"/>
<path fill-rule="evenodd" clip-rule="evenodd" d="M6.66663 10.0001C6.66663 9.53984 7.03972 9.16675 7.49996 9.16675H12.5C12.9602 9.16675 13.3333 9.53984 13.3333 10.0001V18.3334C13.3333 18.7937 12.9602 19.1667 12.5 19.1667C12.0397 19.1667 11.6666 18.7937 11.6666 18.3334V10.8334H8.33329V18.3334C8.33329 18.7937 7.9602 19.1667 7.49996 19.1667C7.03972 19.1667 6.66663 18.7937 6.66663 18.3334V10.0001Z" fill="#919396"/>
</svg>
