<svg width="19" height="18" viewBox="0 0 19 18" fill="none" xmlns="http://www.w3.org/2000/svg">
<path d="M16.3 4.4209H2.7C1.76112 4.4209 1 5.1867 1 6.13136V14.6837C1 15.6283 1.76112 16.3941 2.7 16.3941H16.3C17.2389 16.3941 18 15.6283 18 14.6837V6.13136C18 5.1867 17.2389 4.4209 16.3 4.4209Z" stroke="#29A485" stroke-width="2" stroke-linecap="round" stroke-linejoin="round"/>
<path d="M12.8996 16.3942V2.71046C12.8996 2.25682 12.7205 1.82176 12.4017 1.50098C12.0829 1.18021 11.6505 1 11.1996 1H7.79961C7.34874 1 6.91634 1.18021 6.59753 1.50098C6.27872 1.82176 6.09961 2.25682 6.09961 2.71046V16.3942" stroke="#29A485" stroke-width="2" stroke-linecap="round" stroke-linejoin="round"/>
</svg>
