<svg width="20" height="20" viewBox="0 0 20 20" fill="none" xmlns="http://www.w3.org/2000/svg">
<path d="M2.30817 8.33329C1.94984 8.33329 1.6665 8.04996 1.6665 7.69163V5.76663C1.6665 3.50829 3.50817 1.66663 5.7665 1.66663H7.6915C8.04984 1.66663 8.33317 1.94996 8.33317 2.30829C8.33317 2.66663 8.04984 2.94996 7.6915 2.94996H5.7665C4.20817 2.94996 2.94984 4.21663 2.94984 5.76663V7.69163C2.94984 8.04996 2.65817 8.33329 2.30817 8.33329Z" fill="#9E9E9E"/>
<path d="M17.6915 8.33329C17.3415 8.33329 17.0498 8.04996 17.0498 7.69163V5.76663C17.0498 4.20829 15.7832 2.94996 14.2332 2.94996H12.3082C11.9498 2.94996 11.6665 2.65829 11.6665 2.30829C11.6665 1.95829 11.9498 1.66663 12.3082 1.66663H14.2332C16.4915 1.66663 18.3332 3.50829 18.3332 5.76663V7.69163C18.3332 8.04996 18.0498 8.33329 17.6915 8.33329Z" fill="#9E9E9E"/>
<path d="M14.2331 18.3333H13.0748C12.7248 18.3333 12.4331 18.05 12.4331 17.6917C12.4331 17.3417 12.7164 17.05 13.0748 17.05H14.2331C15.7914 17.05 17.0498 15.7833 17.0498 14.2333V13.0833C17.0498 12.7333 17.3331 12.4417 17.6914 12.4417C18.0414 12.4417 18.3331 12.725 18.3331 13.0833V14.2333C18.3331 16.4917 16.4914 18.3333 14.2331 18.3333Z" fill="#9E9E9E"/>
<path d="M7.6915 18.3333H5.7665C3.50817 18.3333 1.6665 16.4916 1.6665 14.2333V12.3083C1.6665 11.95 1.94984 11.6666 2.30817 11.6666C2.6665 11.6666 2.94984 11.95 2.94984 12.3083V14.2333C2.94984 15.7916 4.2165 17.05 5.7665 17.05H7.6915C8.0415 17.05 8.33317 17.3333 8.33317 17.6916C8.33317 18.05 8.04984 18.3333 7.6915 18.3333Z" fill="#9E9E9E"/>
<path d="M15.3834 9.35828H14.2501H5.7501H4.61676C4.25843 9.35828 3.9751 9.64994 3.9751 9.99994C3.9751 10.3499 4.25843 10.6416 4.61676 10.6416H5.7501H14.2501H15.3834C15.7418 10.6416 16.0251 10.3499 16.0251 9.99994C16.0251 9.64994 15.7418 9.35828 15.3834 9.35828Z" fill="#9E9E9E"/>
<path d="M5.75 11.6167V11.8917C5.75 13.275 6.86667 14.3917 8.25 14.3917H11.75C13.1333 14.3917 14.25 13.275 14.25 11.8917V11.6167C14.25 11.5167 14.175 11.4417 14.075 11.4417H5.925C5.825 11.4417 5.75 11.5167 5.75 11.6167Z" fill="#9E9E9E"/>
<path d="M5.75 8.38328V8.10828C5.75 6.72494 6.86667 5.60828 8.25 5.60828H11.75C13.1333 5.60828 14.25 6.72494 14.25 8.10828V8.38328C14.25 8.48328 14.175 8.55828 14.075 8.55828H5.925C5.825 8.55828 5.75 8.48328 5.75 8.38328Z" fill="#9E9E9E"/>
</svg>
