<svg width="20" height="20" viewBox="0 0 20 20" fill="none" xmlns="http://www.w3.org/2000/svg">
<path d="M2.50001 5.41667V5.41667C2.50001 4.26607 3.43275 3.33333 4.58334 3.33333L16.0714 3.33333C16.1599 3.33333 16.2041 3.33333 16.2412 3.33892C16.4581 3.37161 16.6284 3.54189 16.6611 3.75881C16.6667 3.79586 16.6667 3.8401 16.6667 3.92857V3.92857C16.6667 4.4594 16.6667 4.72482 16.6332 4.94713C16.437 6.24866 15.4153 7.27032 14.1138 7.46649C13.8915 7.5 13.6261 7.5 13.0952 7.5H12.5M2.50001 5.41667V5.41667C2.50001 6.56726 3.43275 7.5 4.58334 7.5L15.5 7.5C16.4428 7.5 16.9142 7.5 17.2071 7.79289C17.5 8.08579 17.5 8.55719 17.5 9.5L17.5 10.8333M2.50001 5.41667L2.50001 13.5C2.50001 15.3856 2.50001 16.3284 3.08579 16.9142C3.67158 17.5 4.61439 17.5 6.50001 17.5L15.5 17.5C16.4428 17.5 16.9142 17.5 17.2071 17.2071C17.5 16.9142 17.5 16.4428 17.5 15.5L17.5 14.1667M17.5 14.1667H14.1667C13.5436 14.1667 13.2321 14.1667 13 14.0327C12.848 13.9449 12.7217 13.8187 12.634 13.6667C12.5 13.4346 12.5 13.1231 12.5 12.5V12.5C12.5 11.8769 12.5 11.5654 12.634 11.3333C12.7217 11.1813 12.848 11.0551 13 10.9673C13.2321 10.8333 13.5436 10.8333 14.1667 10.8333H17.5M17.5 14.1667L17.5 10.8333" stroke="#29A485" stroke-width="1.5"/>
</svg>
